<?xml version="1.0" encoding="UTF-8" standalone="no"?><svg xmlns="http://www.w3.org/2000/svg" xmlns:xlink="http://www.w3.org/1999/xlink" contentScriptType="application/ecmascript" contentStyleType="text/css" height="286px" preserveAspectRatio="none" style="width:557px;height:286px;" version="1.1" viewBox="0 0 557 286" width="557px" zoomAndPan="magnify"><defs><filter height="300%" id="fbha45cvmuj7t" width="300%" x="-1" y="-1"><feGaussianBlur result="blurOut" stdDeviation="2.0"/><feColorMatrix in="blurOut" result="blurOut2" type="matrix" values="0 0 0 0 0 0 0 0 0 0 0 0 0 0 0 0 0 0 .4 0"/><feOffset dx="4.0" dy="4.0" in="blurOut2" result="blurOut3"/><feBlend in="SourceGraphic" in2="blurOut3" mode="normal"/></filter></defs><g><line style="stroke: #A80036; stroke-width: 1.0; stroke-dasharray: 5.0,5.0;" x1="36" x2="36" y1="38.2969" y2="245.9609"/><line style="stroke: #A80036; stroke-width: 1.0; stroke-dasharray: 5.0,5.0;" x1="153.5" x2="153.5" y1="38.2969" y2="245.9609"/><line style="stroke: #A80036; stroke-width: 1.0; stroke-dasharray: 5.0,5.0;" x1="248.5" x2="248.5" y1="38.2969" y2="245.9609"/><line style="stroke: #A80036; stroke-width: 1.0; stroke-dasharray: 5.0,5.0;" x1="343.5" x2="343.5" y1="38.2969" y2="245.9609"/><line style="stroke: #A80036; stroke-width: 1.0; stroke-dasharray: 5.0,5.0;" x1="502.5" x2="502.5" y1="38.2969" y2="245.9609"/><rect fill="#FEFECE" filter="url(#fbha45cvmuj7t)" height="30.2969" style="stroke: #A80036; stroke-width: 1.5;" width="53" x="8" y="3"/><text fill="#000000" font-family="sans-serif" font-size="14" lengthAdjust="spacingAndGlyphs" textLength="39" x="15" y="22.9951">Client</text><rect fill="#FEFECE" filter="url(#fbha45cvmuj7t)" height="30.2969" style="stroke: #A80036; stroke-width: 1.5;" width="53" x="8" y="244.9609"/><text fill="#000000" font-family="sans-serif" font-size="14" lengthAdjust="spacingAndGlyphs" textLength="39" x="15" y="264.9561">Client</text><rect fill="#FEFECE" filter="url(#fbha45cvmuj7t)" height="30.2969" style="stroke: #A80036; stroke-width: 1.5;" width="68" x="117.5" y="3"/><text fill="#000000" font-family="sans-serif" font-size="14" lengthAdjust="spacingAndGlyphs" textLength="54" x="124.5" y="22.9951">Cognito</text><rect fill="#FEFECE" filter="url(#fbha45cvmuj7t)" height="30.2969" style="stroke: #A80036; stroke-width: 1.5;" width="68" x="117.5" y="244.9609"/><text fill="#000000" font-family="sans-serif" font-size="14" lengthAdjust="spacingAndGlyphs" textLength="54" x="124.5" y="264.9561">Cognito</text><rect fill="#FEFECE" filter="url(#fbha45cvmuj7t)" height="30.2969" style="stroke: #A80036; stroke-width: 1.5;" width="94" x="199.5" y="3"/><text fill="#000000" font-family="sans-serif" font-size="14" lengthAdjust="spacingAndGlyphs" textLength="80" x="206.5" y="22.9951">ApiGateway</text><rect fill="#FEFECE" filter="url(#fbha45cvmuj7t)" height="30.2969" style="stroke: #A80036; stroke-width: 1.5;" width="94" x="199.5" y="244.9609"/><text fill="#000000" font-family="sans-serif" font-size="14" lengthAdjust="spacingAndGlyphs" textLength="80" x="206.5" y="264.9561">ApiGateway</text><rect fill="#FEFECE" filter="url(#fbha45cvmuj7t)" height="30.2969" style="stroke: #A80036; stroke-width: 1.5;" width="68" x="307.5" y="3"/><text fill="#000000" font-family="sans-serif" font-size="14" lengthAdjust="spacingAndGlyphs" textLength="54" x="314.5" y="22.9951">Lambda</text><rect fill="#FEFECE" filter="url(#fbha45cvmuj7t)" height="30.2969" style="stroke: #A80036; stroke-width: 1.5;" width="68" x="307.5" y="244.9609"/><text fill="#000000" font-family="sans-serif" font-size="14" lengthAdjust="spacingAndGlyphs" textLength="54" x="314.5" y="264.9561">Lambda</text><rect fill="#FEFECE" filter="url(#fbha45cvmuj7t)" height="30.2969" style="stroke: #A80036; stroke-width: 1.5;" width="92" x="454.5" y="3"/><text fill="#000000" font-family="sans-serif" font-size="14" lengthAdjust="spacingAndGlyphs" textLength="78" x="461.5" y="22.9951">DynamoDB</text><rect fill="#FEFECE" filter="url(#fbha45cvmuj7t)" height="30.2969" style="stroke: #A80036; stroke-width: 1.5;" width="92" x="454.5" y="244.9609"/><text fill="#000000" font-family="sans-serif" font-size="14" lengthAdjust="spacingAndGlyphs" textLength="78" x="461.5" y="264.9561">DynamoDB</text><polygon fill="#A80036" points="141.5,65.4297,151.5,69.4297,141.5,73.4297,145.5,69.4297" style="stroke: #A80036; stroke-width: 1.0;"/><line style="stroke: #A80036; stroke-width: 1.0;" x1="36.5" x2="147.5" y1="69.4297" y2="69.4297"/><text fill="#000000" font-family="sans-serif" font-size="13" lengthAdjust="spacingAndGlyphs" textLength="93" x="43.5" y="64.3638">Authentication</text><polygon fill="#A80036" points="47.5,94.5625,37.5,98.5625,47.5,102.5625,43.5,98.5625" style="stroke: #A80036; stroke-width: 1.0;"/><line style="stroke: #A80036; stroke-width: 1.0; stroke-dasharray: 2.0,2.0;" x1="41.5" x2="152.5" y1="98.5625" y2="98.5625"/><text fill="#000000" font-family="sans-serif" font-size="13" lengthAdjust="spacingAndGlyphs" textLength="67" x="53.5" y="93.4966">STS Token</text><polygon fill="#A80036" points="236.5,123.6953,246.5,127.6953,236.5,131.6953,240.5,127.6953" style="stroke: #A80036; stroke-width: 1.0;"/><line style="stroke: #A80036; stroke-width: 1.0;" x1="36.5" x2="242.5" y1="127.6953" y2="127.6953"/><text fill="#000000" font-family="sans-serif" font-size="13" lengthAdjust="spacingAndGlyphs" textLength="98" x="43.5" y="122.6294">With STS Token</text><polygon fill="#A80036" points="331.5,137.6953,341.5,141.6953,331.5,145.6953,335.5,141.6953" style="stroke: #A80036; stroke-width: 1.0;"/><line style="stroke: #A80036; stroke-width: 1.0;" x1="248.5" x2="337.5" y1="141.6953" y2="141.6953"/><polygon fill="#A80036" points="490.5,166.8281,500.5,170.8281,490.5,174.8281,494.5,170.8281" style="stroke: #A80036; stroke-width: 1.0;"/><line style="stroke: #A80036; stroke-width: 1.0;" x1="343.5" x2="496.5" y1="170.8281" y2="170.8281"/><text fill="#000000" font-family="sans-serif" font-size="13" lengthAdjust="spacingAndGlyphs" textLength="135" x="350.5" y="165.7622">Fetch Random Quote</text><polygon fill="#A80036" points="354.5,180.8281,344.5,184.8281,354.5,188.8281,350.5,184.8281" style="stroke: #A80036; stroke-width: 1.0;"/><line style="stroke: #A80036; stroke-width: 1.0; stroke-dasharray: 2.0,2.0;" x1="348.5" x2="501.5" y1="184.8281" y2="184.8281"/><polygon fill="#A80036" points="259.5,194.8281,249.5,198.8281,259.5,202.8281,255.5,198.8281" style="stroke: #A80036; stroke-width: 1.0;"/><line style="stroke: #A80036; stroke-width: 1.0; stroke-dasharray: 2.0,2.0;" x1="253.5" x2="342.5" y1="198.8281" y2="198.8281"/><polygon fill="#A80036" points="47.5,223.9609,37.5,227.9609,47.5,231.9609,43.5,227.9609" style="stroke: #A80036; stroke-width: 1.0;"/><line style="stroke: #A80036; stroke-width: 1.0; stroke-dasharray: 2.0,2.0;" x1="41.5" x2="247.5" y1="227.9609" y2="227.9609"/><text fill="#000000" font-family="sans-serif" font-size="13" lengthAdjust="spacingAndGlyphs" textLength="156" x="53.5" y="222.895">Amazing quote returned</text><!--
@startuml
Client -> Cognito: Authentication
Cognito - -> Client: STS Token
Client -> ApiGateway: With STS Token
ApiGateway -> Lambda
Lambda -> DynamoDB: Fetch Random Quote
DynamoDB - -> Lambda
Lambda - -> ApiGateway
ApiGateway - -> Client: Amazing quote returned
@enduml

PlantUML version 1.2019.05beta2(Unknown compile time)
(GPL source distribution)
Java Runtime: Java(TM) SE Runtime Environment
JVM: Java HotSpot(TM) 64-Bit Server VM
Java Version: 1.7.0_25-b15
Operating System: Linux
Default Encoding: UTF-8
Language: en
Country: US
--></g></svg>